<svg aria-hidden="true" style="position: absolute; width: 0; height: 0; overflow: hidden;" version="1.1" xmlns="http://www.w3.org/2000/svg" xmlns:xlink="http://www.w3.org/1999/xlink">
<defs>
<symbol id="icon-buzz" viewBox="0 0 194 32">
<path fill="#fff" style="fill: var(--color1, #fff)" d="M19.156 16.459c1.508 0.117 2.82 0.757 3.941 1.915 1.115 1.164 1.675 2.759 1.675 4.791 0 2.494-0.825 4.483-2.481 5.967-1.656 1.478-4.033 2.223-7.143 2.223h-15.147v-29.174h15.11c2.672 0 4.809 0.727 6.422 2.18s2.414 3.38 2.414 5.788c0 1.829-0.505 3.282-1.521 4.353s-2.106 1.669-3.263 1.786v0.172h-0.006zM7.186 14.236h6.268c1.071 0 1.927-0.296 2.568-0.893s0.961-1.385 0.961-2.371c0-0.899-0.314-1.626-0.936-2.18s-1.398-0.825-2.327-0.825h-6.533v6.268zM13.891 25.559c1.133 0 2.007-0.289 2.635-0.868 0.622-0.579 0.936-1.379 0.936-2.395 0-0.961-0.32-1.718-0.961-2.284s-1.465-0.85-2.481-0.85h-6.835v6.398h6.705zM49.715 31.347h-6.964v-2.087c-1.743 1.829-3.978 2.74-6.705 2.74-2.555 0-4.606-0.837-6.164-2.506-1.552-1.669-2.328-3.867-2.328-6.595v-13.405h6.921v11.927c0 1.275 0.351 2.315 1.047 3.116s1.595 1.195 2.697 1.195c1.422 0 2.531-0.499 3.331-1.502s1.195-2.531 1.195-4.593v-10.141h6.964v21.853h0.006zM71.167 31.347h-18.441v-1.312l8.67-15.012h-8.454v-5.529h18.121v1.312l-8.67 15.012h8.774v5.529zM92.619 31.347h-18.441v-1.312l8.67-15.012h-8.46v-5.529h18.121v1.312l-8.67 15.012h8.774v5.529h0.006zM102.976 14.63h12.598v6.268h-12.598v10.449h-7.186v-29.168h20.941v6.311h-13.756v6.139zM166.613 22.204h-16.022c0.412 2.709 2.438 4.224 5.505 4.224 2.414 0 4.797-0.948 6.583-2.321l2.672 4.63c-2.445 2.1-5.616 3.263-9.255 3.263-7.327 0-12.339-4.464-12.339-11.582 0-3.368 1.121-6.139 3.35-8.319 2.235-2.18 4.975-3.263 8.226-3.263 3.165 0 5.818 1.059 7.967 3.177s3.251 4.92 3.307 8.405v1.786h0.006zM152.506 15.412c-0.868 0.61-1.465 1.453-1.786 2.524h9.014c-0.32-1.133-0.868-1.989-1.656-2.568-0.782-0.579-1.7-0.868-2.74-0.868-1.016 0-1.958 0.302-2.832 0.911zM141.139 22.204h-16.021c0.413 2.709 2.438 4.224 5.505 4.224 2.414 0 4.797-0.948 6.582-2.321l2.672 4.63c-2.444 2.1-5.616 3.263-9.255 3.263-7.327 0-12.339-4.464-12.339-11.582 0-3.368 1.121-6.139 3.35-8.319 2.235-2.18 4.975-3.263 8.226-3.263 3.165 0 5.819 1.059 7.968 3.177s3.251 4.92 3.307 8.405v1.786h0.006zM127.033 15.412c-0.868 0.61-1.465 1.453-1.786 2.524h9.014c-0.32-1.133-0.868-1.989-1.656-2.568-0.782-0.579-1.699-0.868-2.74-0.868-1.022 0-1.964 0.302-2.832 0.911zM193.563 31.347h-6.963v-1.743c-1.774 1.595-4.034 2.395-6.792 2.395-2.962 0-5.48-1.084-7.555-3.245s-3.115-4.944-3.115-8.337c0-3.368 1.040-6.139 3.115-8.319s4.594-3.263 7.555-3.263c2.758 0 5.024 0.8 6.792 2.395v-11.231h6.963v31.347zM185.011 24.494c1.059-1.059 1.589-2.414 1.589-4.070 0-1.626-0.53-2.974-1.589-4.052-1.059-1.071-2.315-1.613-3.768-1.613-1.541 0-2.802 0.53-3.787 1.589s-1.478 2.414-1.478 4.070c0 1.681 0.493 3.048 1.478 4.095s2.246 1.57 3.787 1.57c1.453 0 2.709-0.529 3.768-1.589z"></path>
</symbol>
<symbol id="icon-dw" viewBox="0 0 45 32">
<path fill="#fff" style="fill: var(--color1, #fff)" d="M21.761 20.958c-10.044 0-18.221 0.097-18.221 0.193 0 0.129 8.145 0.193 18.221 0.193s18.221-0.097 18.221-0.193c0-0.097-8.177-0.193-18.221-0.193z"></path>
<path fill="#fff" style="fill: var(--color1, #fff)" d="M33.866 16.354h-0.998l-4.056-13.586-4.217 13.586h-0.998l-3.831-14.938h0.676l3.67 14.294h0.032l4.41-14.229h0.58l4.25 14.229 3.895-14.294h0.676l-4.088 14.938zM36.377 0c-0.419 0-0.773 0.29-0.934 0.74l-2.318 9.336-2.93-10.076h-2.318c-0.386 0-0.74 0.258-0.934 0.74l-2.704 9.336-2.254-9.304v-0.032c-0.161-0.451-0.515-0.74-0.934-0.74h-3.477l4.764 17.867 0.064 0.258h3.348l2.962-9.787 2.962 9.787h3.348l4.861-18.093h-3.509v-0.032zM15.226 9.561c0 1.996 0.032 4.089-1.577 5.698-0.966 0.966-2.415 1.513-4.121 1.513h-4.41v-15.388h4.41c1.706 0 3.123 0.515 4.121 1.513 1.61 1.61 1.61 3.541 1.577 5.569v1.095zM14.936 1.771c-1.159-1.159-2.833-1.771-4.829-1.771h-6.632v18.093h6.632c1.996 0 3.67-0.612 4.829-1.771 1.899-1.899 1.867-4.346 1.867-6.696v-1.288c0-2.415 0-4.668-1.867-6.567zM12.071 13.457c-0.547 0.676-1.256 0.966-2.286 0.966h-2.254v-10.72h2.254c1.030 0 1.738 0.29 2.286 0.966s0.676 1.738 0.676 4.314c-0.032 2.575-0.097 3.767-0.676 4.475zM13.198 3.348c-0.869-0.869-2.125-1.32-3.638-1.32h-3.799v14.036h3.767c1.545 0 2.801-0.451 3.638-1.32 1.416-1.417 1.416-3.252 1.384-5.215v-1.095c0.032-1.964 0.064-3.67-1.352-5.087z"></path>
<path fill="#fff" style="fill: var(--color1, #fff)" d="M6.020 29.94l0.708-4.7 1.159-0.161-0.193 1.32h1.159l-0.129 0.966h-1.159l-0.386 2.511c-0.032 0.161 0.032 0.225 0.225 0.225 0.225 0 0.515-0.097 0.773-0.193l0.258 0.773c-0.386 0.193-0.869 0.354-1.417 0.354-0.74 0-1.095-0.419-0.998-1.095zM40.402 29.94l0.708-4.7 1.159-0.161-0.193 1.32h1.159l-0.129 0.966h-1.159l-0.386 2.511c-0.032 0.161 0.032 0.225 0.225 0.225 0.225 0 0.515-0.097 0.773-0.193l0.258 0.773c-0.386 0.193-0.869 0.354-1.416 0.354-0.74 0-1.095-0.419-0.998-1.095zM12.298 27.718c0-0.032 0.032-0.322-0.258-0.322s-0.934 0.29-1.352 0.515l-0.451 3.026h-1.127l0.676-4.475 0.966-0.161v0.547c0.579-0.322 1.288-0.579 1.835-0.579 0.644 0 0.869 0.418 0.901 0.901 0 0.193 0 0.29-0.032 0.451l-0.483 3.284h-1.127l0.451-3.187zM15.259 29.618c-0.032 0.257-0.064 0.483 0.354 0.483 0.483 0 1.159-0.225 1.738-0.515l0.258 0.869c-0.547 0.322-1.384 0.612-2.157 0.612-1.223 0-1.481-0.676-1.352-1.61l0.193-1.384c0.161-1.062 0.644-1.706 2.028-1.706 0.869 0 1.481 0.451 1.513 1.191 0.032 0.805-0.483 1.288-1.738 1.674-0.547 0.161-0.644 0.193-0.869 0.258l0.032 0.129zM16.805 27.557c0-0.193-0.193-0.354-0.483-0.354-0.515 0-0.74 0.322-0.805 0.74l-0.064 0.451c0.161-0.032 0.193-0.064 0.676-0.193 0.483-0.161 0.676-0.354 0.676-0.644zM36.378 27.364c-0.515 0.29-0.869 0.515-1.32 0.805l-0.418 2.801h-1.127l0.676-4.475 0.966-0.161-0.032 0.676c0.322-0.225 0.773-0.515 1.159-0.676l0.097 1.030zM36.41 30.744l0.193-0.837c0.354 0.129 0.837 0.225 1.288 0.225 0.515 0 0.612-0.097 0.644-0.386s0-0.386-0.708-0.708c-0.966-0.483-1.095-0.805-0.998-1.513 0.129-0.901 0.483-1.191 1.706-1.191 0.418 0 0.998 0.097 1.384 0.225l-0.161 0.869c-0.354-0.097-0.869-0.161-1.191-0.161-0.451 0-0.58 0.032-0.644 0.354-0.032 0.322 0.032 0.386 0.547 0.644 1.062 0.58 1.256 0.74 1.159 1.449-0.161 1.030-0.483 1.352-1.771 1.352-0.418-0.032-1.030-0.129-1.449-0.322zM22.052 30.744l0.193-0.837c0.354 0.129 0.837 0.225 1.288 0.225 0.515 0 0.612-0.097 0.644-0.386s0-0.386-0.708-0.708c-0.966-0.483-1.095-0.805-0.998-1.513 0.129-0.901 0.483-1.191 1.706-1.191 0.418 0 0.998 0.097 1.384 0.225l-0.161 0.869c-0.354-0.097-0.869-0.161-1.191-0.161-0.451 0-0.58 0.032-0.644 0.354-0.032 0.322 0.032 0.386 0.547 0.644 1.062 0.58 1.256 0.74 1.159 1.449-0.161 1.030-0.483 1.352-1.771 1.352-0.418-0.032-1.062-0.129-1.449-0.322zM18.253 30.744l0.193-0.837c0.354 0.129 0.837 0.225 1.288 0.225 0.515 0 0.612-0.097 0.644-0.386s0-0.386-0.708-0.708c-0.966-0.483-1.095-0.805-0.998-1.513 0.129-0.901 0.483-1.191 1.706-1.191 0.419 0 0.998 0.097 1.384 0.225l-0.161 0.869c-0.354-0.097-0.869-0.161-1.191-0.161-0.451 0-0.58 0.032-0.644 0.354-0.032 0.322 0.032 0.386 0.547 0.644 1.062 0.58 1.256 0.74 1.159 1.449-0.161 1.030-0.483 1.352-1.771 1.352-0.419-0.032-1.062-0.129-1.449-0.322zM1.964 26.431l0.161-1.159h2.479l0.161-0.998h-3.606l-1.159 7.726h1.127l0.676-4.604h2.414l-0.547 3.573h1.127l0.676-4.539h-3.509zM29.618 26.431l0.161-1.159h2.479l0.161-0.998h-3.606l-1.159 7.726h1.127l0.676-4.604h2.382l-0.547 3.573h1.127l0.676-4.539h-3.477z"></path>
</symbol>
<symbol id="icon-esprit" viewBox="0 0 142 32">
<path fill="#fff" style="fill: var(--color1, #fff)" d="M51.815 22.687c0-4.8-2.38-7.426-10.995-8.821v3.405c5.949 1.026 7.467 2.584 7.426 5.538-0.041 2.831-2.092 5.703-8.615 5.703-5.497 0-8.656-2.913-9.313-6.974h-3.98c0.492 5.005 4.677 10.462 13.169 10.462 8.656 0 12.308-4.841 12.308-9.313zM27.281 8.697c0 6.113 5.538 7.918 10.133 8.328v-3.446c-3.774-0.492-6.564-1.846-6.564-4.841 0-2.954 2.913-5.251 7.713-5.251 4.308 0 7.179 2.133 7.877 5.456h4.103c-0.369-3.569-3.815-8.944-11.98-8.944-6.154 0-11.282 3.364-11.282 8.697zM0 0.616v3.569h22.482v-3.569h-22.482zM22.482 14.236h-22.482v3.528h22.482v-3.528zM22.482 27.816h-22.482v3.569h22.482v-3.569zM59.732 0.616v30.769h-3.569v-30.769h3.569zM63.137 4.185v-3.569h6.031c5.785 0 9.477 3.61 9.477 8.574s-3.897 8.574-9.477 8.574h-6.031v-3.569h6.031c3.816 0 5.908-2.051 5.908-5.005s-2.092-5.005-5.908-5.005l-6.031 0zM86.521 0.616h-3.569v30.769h3.569v-30.769zM106.337 9.19c0-4.964-3.692-8.574-9.477-8.574h-6.933v3.569h6.81c3.815 0 5.826 2.256 5.826 5.005 0 2.79-2.010 5.005-5.826 5.005h-6.81v3.569h6.933c5.58 0 9.477-3.61 9.477-8.574zM95.793 20.841l6.974 10.544h4.472l-7.18-10.544h-4.267zM111.464 0.616h3.569v30.769h-3.569v-30.769zM118.848 0.616v3.569h23.303v-3.569h-23.303zM132.305 31.385v-23.877h-3.569v23.877h3.569z"></path>
</symbol>
<symbol id="icon-huffpost" viewBox="0 0 275 32">
<path fill="#fff" style="fill: var(--color1, #fff)" d="M35.382 31.354h9.995l5.359-30.67h-9.995l-1.976 10.983h-8.665l1.976-10.983h-9.995l-5.359 30.67h9.995l2.014-11.477h8.665l-2.014 11.477z"></path>
<path fill="#fff" style="fill: var(--color1, #fff)" d="M56.399 0.646l-3.040 17.064c-0.266 1.33-0.38 2.622-0.38 3.838 0 9.045 7.905 10.413 12.656 10.413 9.957 0 14.252-3.306 15.81-12.238l3.344-19.116h-9.995l-2.85 16.038c-0.912 5.017-1.558 7.639-5.283 7.639-2.432 0-3.611-1.292-3.611-3.952 0-1.026 0.152-2.28 0.456-3.839l2.888-15.886h-9.995v0.038z"></path>
<path fill="#fff" style="fill: var(--color1, #fff)" d="M137.615 31.354h9.995l1.406-7.905h4.713c8.703 0 13.53-4.712 13.53-13.302 0-6.043-4.181-9.501-11.516-9.501h-12.77l-5.359 30.708zM153.197 15.886h-2.888l1.33-7.221h2.698c2.204 0 3.382 1.102 3.382 3.116 0 2.546-1.71 4.104-4.523 4.104z"></path>
<path fill="#fff" style="fill: var(--color1, #fff)" d="M186.68 0c-10.87 0-17.37 7.031-17.37 18.85 0 8.209 5.17 13.15 13.835 13.15 10.869 0 17.368-7.031 17.368-18.85 0.037-8.247-5.131-13.15-13.834-13.15zM183.754 24.057c-2.586 0-4.106-1.862-4.106-4.979 0-1.178 0.115-2.204 0.342-3.382 0.76-4.028 2.053-7.715 6.118-7.715 2.584 0 4.106 1.862 4.106 4.979 0 1.178-0.115 2.204-0.342 3.382-0.76 3.99-2.053 7.715-6.118 7.715z"></path>
<path fill="#fff" style="fill: var(--color1, #fff)" d="M235.288 31.354h9.995l3.952-22.461h7.525l1.445-8.209h-25.578l-1.445 8.209h7.981l-3.875 22.461z"></path>
<path fill="#fff" style="fill: var(--color1, #fff)" d="M218.717 12.009c-3.154-0.988-4.446-1.406-4.446-2.888 0-0.988 0.646-2.166 2.547-2.166 1.405 0 2.584 0.798 3.040 1.976l8.818-2.394c-1.027-4.333-4.752-6.537-11.174-6.537-12.085 0-13.035 8.095-13.035 10.565 0 5.017 2.661 8.095 8.437 9.691 1.52 0.418 3.269 0.874 3.269 2.546 0 1.33-0.989 2.166-2.699 2.166-1.558 0-3.23-0.912-3.8-2.508l-8.702 2.356c0.949 4.561 5.245 7.145 11.971 7.145 5.13 0 13.72-1.368 13.72-10.641 0.037-4.636-2.586-7.677-7.944-9.311z"></path>
<path fill="#fff" style="fill: var(--color1, #fff)" d="M11.135 31.354l5.397-30.67h-16.532v30.67h11.135z"></path>
<path fill="#fff" style="fill: var(--color1, #fff)" d="M262.499 0.684l-5.358 30.67h16.531v-30.67h-11.173z"></path>
<path fill="#fff" style="fill: var(--color1, #fff)" d="M96.722 22.309h8.399l1.368-7.715h-8.399l0.95-5.701h11.744l1.444-8.247h-21.739l-5.359 30.708h9.995l1.596-9.045z"></path>
<path fill="#fff" style="fill: var(--color1, #fff)" d="M122.908 22.309h8.437l1.368-7.715h-8.399l0.95-5.701h11.743l1.444-8.247h-21.739l-5.359 30.708h9.995l1.558-9.045z"></path>
</symbol>
<symbol id="icon-nationalgeogr" viewBox="0 0 70 32">
<path fill="#fff" style="fill: var(--color1, #fff)" d="M22.845 29.69l0.028-0.057 0.028 0.057c0.342 0.57 0.599 1.027 1.027 1.084 0.399-0.086 0.485-0.513 0.599-0.941 0-0.057 0.028-0.086 0.028-0.143-0.228-0.086-0.399-0.257-0.485-0.342-0.029 0.086-0.029 0.171-0.029 0.228-0.028 0.228-0.057 0.342-0.143 0.342-0.028 0-0.028 0-0.057-0.028-0.257-0.171-0.57-0.856-0.599-0.884v-0.057c0.171-0.314 0.342-0.656 0.513-0.97 0.171-0.371 0.342-0.684 0.456-0.856l-0.656-0.342c-0.057 0.285-0.2 0.684-0.314 1.027-0.057 0.171-0.114 0.314-0.143 0.428l-0.028 0.143-0.029-0.143c-0.143-0.513-0.257-1.768-0.285-1.825v-0.028h1.055l0.57 0.028v-0.542l-0.599 0.028h-1.055v-0.856h-0.628c0 0.085 0.028 0.314 0.057 0.456l0.028 0.371h-1.968l-0.856 0.028v0.542l0.799-0.028h1.968v0.028c0.086 0.77 0.314 2.139 0.485 2.624v0.057c-0.314 0.57-1.084 1.198-1.312 1.369 0.114 0.057 0.314 0.171 0.542 0.399 0.143-0.171 0.713-0.77 0.998-1.198z"></path>
<path fill="#fff" style="fill: var(--color1, #fff)" d="M22.018 29.633v-0.513c-0.684 0.257-1.911 0.456-2.738 0.513 0.028 0.114 0.143 0.456 0.228 0.684l2.51-0.684z"></path>
<path fill="#fff" style="fill: var(--color1, #fff)" d="M21.818 26.98l-0.57 0.029h-0.884l-0.57-0.029 0.028 0.513v0.856l-0.028 0.571 0.599-0.029h0.856l0.542 0.029-0.029-0.656v-0.77l0.057-0.513zM21.276 28.435h-0.913v-0.913h0.913v0.913z"></path>
<path fill="#fff" style="fill: var(--color1, #fff)" d="M23.13 25.298l0.399 0.485 0.485-0.285-0.428-0.456-0.456 0.257z"></path>
<path fill="#fff" style="fill: var(--color1, #fff)" d="M25.326 31.857l-0.028-0.827v-5.932l0.028-0.799-0.827 0.057h-5.162l-0.856-0.028 0.028 0.913v5.875l-0.028 0.884h0.656v-0.456h5.561v0.314h0.628zM19.137 30.973v-6.075h5.561v6.075h-5.561z"></path>
<path fill="#fff" style="fill: var(--color1, #fff)" d="M34.11 28.806c0.171 1.198 1.198 2.253 1.711 2.453 0.143-0.399 0.399-0.656 0.542-0.77-1.654-0.684-1.768-2.053-1.768-2.053v-0.029l0.029-0.028c0.399-0.314 0.856-0.57 1.055-0.656l-0.656-0.542c-0.628 0.57-1.597 1.255-1.626 1.255l-0.057 0.057-0.028-0.057c-0.285-0.571-0.856-0.998-0.884-0.998l-0.086-0.057 0.086-0.057c0.171-0.114 0.628-0.57 0.628-0.57l0.028-0.029h1.426l0.513 0.029v-0.628l-0.485 0.028h-3.365l-0.656-0.028v0.628l0.57-0.029h1.084l-0.114 0.114c-0.513 0.542-1.512 0.998-2.795 1.34 0.228 0.171 0.342 0.456 0.399 0.57 0.799-0.257 2.168-0.998 2.196-0.998h0.057c0.171 0.057 0.314 0.257 0.342 0.257l0.028 0.057-0.086-0.028c-0.913 0.97-2.424 1.397-2.909 1.54 0.2 0.171 0.314 0.456 0.371 0.57 1.141-0.371 2.824-1.626 2.852-1.654l0.057-0.028 0.029 0.057c0.028 0.029 0.171 0.2 0.171 0.314v0.028l-0.028 0.029c-0.599 0.684-1.711 1.626-3.622 2.053 0.228 0.228 0.371 0.513 0.428 0.656 2.196-0.799 3.337-2.054 3.337-2.054l0.086-0.114 0.028 0.143c0.057 0.542 0 0.941-0.228 1.198-0.285 0.314-0.713 0.314-0.941 0.314 0.171 0.314 0.285 0.656 0.314 0.799 0.228-0.057 1.055-0.314 1.255-0.684 0.285-0.513 0.371-1.34 0.2-2.082v-0.057l0.513-0.342v0.086z"></path>
<path fill="#fff" style="fill: var(--color1, #fff)" d="M29.319 24.87l0.028 0.513v0.856l-0.028 0.485h0.713v-1.226h5.448v1.141h0.684l-0.029-0.57v-0.684l0.029-0.513-0.599 0.028h-2.339v-0.057c-0.057-0.314-0.2-0.684-0.228-0.827l-0.77 0.143c0.114 0.314 0.171 0.656 0.171 0.684v0.086h-2.481l-0.599-0.057z"></path>
<path fill="#fff" style="fill: var(--color1, #fff)" d="M42.752 30.717c0 0.285 0 0.542 0.171 0.742 0.257 0.257 0.856 0.342 1.911 0.285 1.911-0.086 1.968-0.228 2.282-1.112 0.028-0.057 0.028-0.114 0.057-0.171-0.314-0.143-0.542-0.314-0.656-0.399-0.171 1.055-0.684 1.055-1.626 1.084h-0.114c-0.057 0-0.143 0-0.2 0-0.114 0-0.2 0-0.285 0-0.542 0-0.884-0.143-0.884-0.884v-2.681l0.884-0.371v2.31l-0.028 0.77h0.684l-0.028-0.77v-2.51l1.027-0.342v1.626c-0.057 0.485-0.2 0.627-0.684 0.627 0.171 0.257 0.228 0.57 0.257 0.713 0.2-0.028 0.97-0.143 1.027-0.741 0.028-0.314 0.057-2.824 0.057-3.194-0.114 0.028-0.399 0.171-0.599 0.257l-1.084 0.428v-1.398l0.028-0.856h-0.684l0.028 0.856v1.597l-0.884 0.285v-0.913l0.029-0.684h-0.742l0.028 0.684v1.226h-0.057c-0.285 0.085-0.628 0.171-0.77 0.2l0.171 0.685c0.114-0.057 0.342-0.143 0.542-0.228l0.086-0.057v2.795c0.057 0.057 0.057 0.114 0.057 0.143z"></path>
<path fill="#fff" style="fill: var(--color1, #fff)" d="M42.039 30.289v-0.713l-0.856 0.399v-2.795h0.257c0.171 0 0.428 0.029 0.542 0.029v-0.713c-0.114 0-0.371 0.028-0.513 0.028h-0.285v-1.397c0-0.143 0.028-0.456 0.028-0.599h-0.684c0 0.114 0.028 0.399 0.028 0.599v1.426h-0.257c-0.257 0-0.399 0-0.599-0.029v0.685c0.114 0 0.399-0.029 0.599-0.029h0.285v2.966l-0.028 0.028c-0.228 0.114-0.57 0.2-0.827 0.228 0.057 0.143 0.2 0.485 0.257 0.913 0.171-0.2 0.827-0.57 2.053-1.027z"></path>
<path fill="#fff" style="fill: var(--color1, #fff)" d="M52.791 30.431c0-0.285-0.028-0.628-0.028-0.77l-1.027 0.485v-2.196h0.399l0.399 0.028v-0.713l-0.428 0.028h-0.371v-1.939h0.57l0.342 0.028v-0.684l-0.371 0.028h-1.54l-0.485-0.028v0.684l0.513-0.028h0.399v1.939h-0.456l-0.428-0.057v0.713l0.399-0.028h0.485v2.367h-0.029c-0.513 0.228-0.913 0.314-1.027 0.314l0.2 0.856c1.255-0.57 2.31-0.97 2.481-1.027z"></path>
<path fill="#fff" style="fill: var(--color1, #fff)" d="M57.469 31.8v-0.684l-0.656 0.029h-1.483v-1.027h1.084l0.599 0.029v-0.656l-0.628 0.028h-1.055v-0.97h1.027l0.684 0.028-0.028-0.542v-2.909l0.028-0.713-0.713 0.028h-2.567l-0.656-0.028 0.028 0.799v2.766l-0.028 0.628 0.684-0.028h0.97v0.97h-0.97l-0.57-0.028v0.628l0.599-0.029h0.941v1.027h-1.654l-0.627-0.029v0.684l0.627-0.028h3.622l0.742 0.028zM55.358 25.012h1.055v1.198h-1.055v-1.198zM55.358 26.752h1.055v1.226h-1.055v-1.226zM54.759 27.979h-0.998v-1.226h0.998v1.226zM54.759 26.182h-0.998v-1.198h0.998v1.198z"></path>
<path fill="#fc0" style="fill: var(--color2, #fc0)" d="M0 0h14.374v20.592h-14.374v-20.592zM12.292 2.082h-10.21v16.428h10.21v-16.428z"></path>
<path fill="#fff" style="fill: var(--color1, #fff)" d="M23.815 9.241h-0.884c-1.169-1.654-2.339-3.308-3.508-5.162v5.162h-0.998v-7.216h0.884c1.169 1.654 2.339 3.28 3.48 5.134h0.028v-5.134h0.998v7.216z"></path>
<path fill="#fff" style="fill: var(--color1, #fff)" d="M26.153 6.389c0.285-0.941 0.57-1.825 0.827-2.938h0.028c0.285 1.112 0.542 1.996 0.799 2.938h-1.654zM26.638 2.025l-2.481 7.187h1.055l0.628-1.968h2.168l0.57 1.968h1.369l-2.282-7.187h-1.027z"></path>
<path fill="#fff" style="fill: var(--color1, #fff)" d="M31.116 9.241v-6.246h-1.882v-0.97h5.020v0.97h-1.911v6.246h-1.226z"></path>
<path fill="#fff" style="fill: var(--color1, #fff)" d="M35.879 2.025h-1.226v7.187h1.226v-7.187z"></path>
<path fill="#fff" style="fill: var(--color1, #fff)" d="M39.672 8.328c-1.284 0-1.74-1.426-1.74-2.795 0-1.34 0.513-2.595 1.74-2.595s1.74 1.255 1.74 2.595c0 1.369-0.456 2.795-1.74 2.795zM39.672 9.355c1.882 0 3.052-1.683 3.052-3.822 0-2.025-1.284-3.622-3.052-3.622s-3.052 1.597-3.052 3.622c0 2.139 1.169 3.822 3.052 3.822z"></path>
<path fill="#fff" style="fill: var(--color1, #fff)" d="M48.856 9.241h-0.884c-1.169-1.654-2.339-3.308-3.508-5.162v5.162h-0.998v-7.216h0.884c1.169 1.654 2.339 3.28 3.48 5.134h0.028v-5.134h0.998v7.216z"></path>
<path fill="#fff" style="fill: var(--color1, #fff)" d="M51.223 6.389c0.285-0.941 0.57-1.825 0.827-2.938h0.028c0.285 1.112 0.542 1.996 0.827 2.938h-1.683zM51.679 2.025l-2.481 7.187h1.084l0.627-1.968h2.168l0.57 1.968h1.369l-2.282-7.187h-1.055z"></path>
<path fill="#fff" style="fill: var(--color1, #fff)" d="M55.358 2.025h1.226v6.246h2.453v0.97h-3.679v-7.216z"></path>
<path fill="#fff" style="fill: var(--color1, #fff)" d="M23.045 15.258v2.966c-0.656 0.257-1.34 0.428-2.054 0.428-2.11 0-3.451-1.654-3.451-3.765 0-1.968 1.34-3.679 3.508-3.679 0.656 0 1.34 0.257 1.74 0.542l-0.399 0.856c-0.342-0.2-0.856-0.371-1.312-0.371-1.312 0-2.225 1.027-2.225 2.681 0 1.711 1.027 2.709 2.082 2.709 0.342 0 0.599-0.028 0.856-0.171v-2.224h1.255v0.028z"></path>
<path fill="#fff" style="fill: var(--color1, #fff)" d="M27.465 12.321h-2.053v1.968h2.025v0.97h-2.025v2.339h2.424v0.941h-3.651v-7.187h3.28v0.97z"></path>
<path fill="#fff" style="fill: var(--color1, #fff)" d="M31.259 17.654c-1.284 0-1.74-1.426-1.74-2.795 0-1.312 0.513-2.595 1.74-2.595s1.74 1.255 1.74 2.595c0 1.369-0.456 2.795-1.74 2.795zM31.259 18.681c1.882 0 3.052-1.683 3.052-3.822 0-2.025-1.284-3.622-3.052-3.622s-3.052 1.597-3.052 3.622c0 2.139 1.169 3.822 3.052 3.822z"></path>
<path fill="#fff" style="fill: var(--color1, #fff)" d="M40.242 15.258v2.966c-0.656 0.257-1.34 0.428-2.054 0.428-2.11 0-3.451-1.654-3.451-3.765 0-1.968 1.34-3.679 3.508-3.679 0.656 0 1.34 0.257 1.74 0.542l-0.399 0.856c-0.342-0.2-0.856-0.371-1.312-0.371-1.312 0-2.225 1.027-2.225 2.681 0 1.711 1.027 2.709 2.082 2.709 0.342 0 0.599-0.028 0.856-0.171v-2.224h1.255v0.028z"></path>
<path fill="#fff" style="fill: var(--color1, #fff)" d="M42.61 12.321h0.542c0.741 0 1.141 0.428 1.141 1.169 0 0.97-0.599 1.397-1.169 1.426-0.114 0-0.399 0.028-0.513 0.028v-2.624zM45.747 18.538l-1.455-2.995c0.799-0.428 1.255-1.283 1.255-2.139 0-1.397-0.856-2.082-2.225-2.082h-1.911v7.187h1.226v-2.709h0.57l1.169 2.709h1.369v0.029z"></path>
<path fill="#fff" style="fill: var(--color1, #fff)" d="M47.772 15.715c0.285-0.941 0.57-1.825 0.827-2.938h0.028c0.285 1.112 0.542 1.996 0.799 2.938h-1.654zM48.257 11.351l-2.481 7.187h1.084l0.627-1.968h2.168l0.57 1.968h1.369l-2.282-7.187h-1.055z"></path>
<path fill="#fff" style="fill: var(--color1, #fff)" d="M53.191 18.538h-1.226v-7.187h1.911c1.369 0 2.225 0.684 2.225 2.082 0 1.226-0.884 2.396-2.367 2.396h-0.57v-0.884c0.057 0 0.399-0.029 0.542-0.029 0.599-0.028 1.169-0.456 1.169-1.426 0-0.742-0.399-1.169-1.141-1.169h-0.57v6.217h0.028z"></path>
<path fill="#fff" style="fill: var(--color1, #fff)" d="M61.832 18.538h-1.226v-3.451h-2.567v3.451h-1.226v-7.187h1.226v2.767h2.567v-2.738h1.226v7.159z"></path>
<path fill="#fff" style="fill: var(--color1, #fff)" d="M64.257 11.351h-1.226v7.187h1.226v-7.187z"></path>
<path fill="#fff" style="fill: var(--color1, #fff)" d="M69.79 12.663c-0.285-0.171-0.799-0.399-1.255-0.399-1.255 0-2.168 1.027-2.168 2.681 0 1.711 0.998 2.709 2.196 2.709 0.485 0 0.913-0.143 1.226-0.371l0.342 0.884c-0.371 0.257-1.027 0.485-1.626 0.485-2.111 0-3.451-1.654-3.451-3.765 0-1.968 1.312-3.679 3.48-3.679 0.628 0 1.226 0.257 1.654 0.542l-0.399 0.913z"></path>
</symbol>
<symbol id="icon-nike" viewBox="0 0 93 32">
<path fill="#fff" style="fill: var(--color1, #fff)" d="M91.418 0l-66.88 28.48c-5.547 2.347-10.204 3.52-13.973 3.52-4.267 0-7.36-1.493-9.28-4.48-1.209-1.92-1.564-4.356-1.067-7.307s1.813-6.098 3.947-9.44c1.778-2.702 4.693-6.258 8.747-10.667-1.422 2.276-2.418 4.622-2.987 7.040-1.067 4.551-0.107 7.893 2.88 10.027 1.422 0.996 3.378 1.493 5.867 1.493 1.991 0 4.231-0.32 6.72-0.96l66.027-17.707z"></path>
</symbol>
<symbol id="icon-play-logo" viewBox="0 0 32 32">
<path fill="#ef8963" style="fill: var(--color3, #ef8963)" d="M32 16c0 8.837-7.163 16-16 16s-16-7.163-16-16c0-8.837 7.163-16 16-16s16 7.163 16 16z"></path>
<path fill="#fafaf9" style="fill: var(--color4, #fafaf9)" d="M24 16l-12 6.928v-13.856l12 6.928z"></path>
</symbol>
<symbol id="icon-rightarrow" viewBox="0 0 38 32">
<path fill="none" stroke="#fafaf9" style="stroke: var(--color4, #fafaf9)" stroke-linejoin="round" stroke-linecap="round" stroke-miterlimit="4" stroke-width="2.6182" d="M1.455 15.599h32.086"></path>
<path fill="none" stroke="#fafaf9" style="stroke: var(--color4, #fafaf9)" stroke-linejoin="round" stroke-linecap="round" stroke-miterlimit="4" stroke-width="2.6182" d="M20.856 1.565l14.369 14.148-14.369 14.148"></path>
</symbol>
<symbol id="icon-running-man" viewBox="0 0 32 32">
<path fill="#fff" style="fill: var(--color1, #fff)" d="M29.647 9.451c-0.419-0.501-1.166-0.567-1.667-0.149l-3.282 2.757-1.509-3.739c-0.054-0.14-0.135-0.258-0.229-0.362-0.308-0.686-0.844-1.275-1.582-1.617-0.321-0.146-0.652-0.224-0.982-0.262-0.073-0.038-0.139-0.088-0.222-0.114l-5.776-1.61c-0.324-0.088-0.65-0.031-0.917 0.125-0.317 0.107-0.589 0.338-0.719 0.672l-2.175 5.592c-0.236 0.608 0.066 1.294 0.676 1.534 0.606 0.236 1.294-0.068 1.532-0.678l1.837-4.722 2.63 0.731c-0.064 0.104-0.133 0.201-0.185 0.312l-3.372 7.309c-0.049 0.107-0.075 0.217-0.109 0.328l-4.098 6.871-6.859 2.294c-0.776 0.58-0.941 1.674-0.367 2.45 0.577 0.778 1.674 0.943 2.448 0.369l7.018-2.417c0.215-0.156 0.371-0.36 0.489-0.581 0.088-0.094 0.189-0.168 0.256-0.284l2.443-4.096 4.337 3.696-4.64 5.23c-0.639 0.721-0.575 1.832 0.149 2.469 0.723 0.643 1.83 0.575 2.473-0.149l5.791-6.524c0.18-0.201 0.288-0.433 0.36-0.676 0.043-0.132 0.043-0.269 0.054-0.405 0-0.069 0.026-0.132 0.021-0.196-0.016-0.478-0.21-0.943-0.601-1.274l-3.991-3.403c0.288-0.274 0.532-0.6 0.709-0.983l2.585-5.599 0.828 2.206c0.035 0.196 0.101 0.388 0.239 0.549 0.125 0.149 0.284 0.248 0.454 0.317 0.017 0.009 0.038 0.010 0.059 0.016 0.107 0.038 0.217 0.075 0.329 0.080 0.133 0.012 0.269-0.005 0.405-0.043 0.004-0.002 0.005-0.002 0.005-0.002 0.036-0.009 0.073-0.002 0.109-0.017 0.192-0.073 0.34-0.196 0.466-0.34l4.71-3.998c0.501-0.421 0.289-1.166-0.132-1.667z"></path>
<path fill="#fff" style="fill: var(--color1, #fff)" d="M23.689 6.602c1.823 0 3.301-1.478 3.301-3.301s-1.478-3.301-3.301-3.301c-1.823 0-3.301 1.478-3.301 3.301s1.478 3.301 3.301 3.301z"></path>
</symbol>
<symbol id="icon-uparrow" viewBox="0 0 48 32">
<path stroke-linejoin="round" stroke-linecap="butt" stroke-miterlimit="4" stroke-width="2.6667" d="M46.627 25.427l-22.627-22.627-22.627 22.627 3.771 3.773 18.856-18.859 18.856 18.859 3.771-3.773z"></path>
</symbol>
</defs>
</svg>
