<?xml version="1.0" standalone="no"?>
<!DOCTYPE svg PUBLIC "-//W3C//DTD SVG 20010904//EN"
 "http://www.w3.org/TR/2001/REC-SVG-20010904/DTD/svg10.dtd">
<svg version="1.0" xmlns="http://www.w3.org/2000/svg"
 width="512.000000pt" height="512.000000pt" viewBox="0 0 512.000000 512.000000"
 preserveAspectRatio="xMidYMid meet">
<metadata>
Created by potrace 1.14, written by Peter Selinger 2001-2017
</metadata>
<g transform="translate(0.000000,512.000000) scale(0.100000,-0.100000)"
fill="#000000" stroke="none">
<path d="M3370 5101 c-30 -10 -75 -28 -100 -41 -58 -30 -160 -133 -184 -188
-14 -30 -24 -42 -35 -39 -9 3 -43 15 -76 27 -318 118 -658 -138 -632 -475 6
-80 37 -171 79 -233 17 -24 140 -154 275 -289 242 -242 244 -245 226 -265 -33
-38 -1414 -1418 -1418 -1418 -3 0 -115 110 -249 244 -134 134 -265 258 -291
276 -63 43 -145 71 -231 77 -185 14 -371 -92 -453 -259 -41 -82 -45 -104 -45
-218 0 -75 5 -108 23 -155 12 -33 25 -67 27 -75 4 -10 -9 -22 -38 -37 -139
-68 -237 -223 -244 -388 -4 -99 7 -151 51 -240 28 -58 58 -94 174 -210 78 -77
141 -143 141 -146 0 -3 -36 -44 -81 -90 -120 -125 -166 -216 -172 -346 -15
-278 222 -514 497 -496 129 8 221 52 332 160 39 37 78 74 87 82 15 12 31 -1
151 -119 148 -146 190 -179 274 -211 67 -25 190 -33 265 -18 119 25 266 139
315 243 19 39 25 46 37 36 35 -29 151 -58 231 -58 380 -1 603 420 391 737 -17
24 -139 153 -273 287 -134 134 -244 246 -244 248 0 6 1430 1436 1435 1436 3 0
114 -109 248 -243 134 -134 257 -253 273 -264 155 -110 360 -122 518 -29 209
123 295 393 192 607 l-22 48 47 25 c241 132 321 450 169 677 -16 24 -88 103
-159 174 -72 72 -131 133 -131 136 0 4 34 42 75 84 92 95 128 149 154 228 135
412 -309 773 -685 558 -28 -17 -89 -66 -135 -110 -46 -45 -86 -81 -89 -81 -3
0 -64 59 -135 131 -141 141 -188 177 -274 210 -76 29 -215 33 -291 10z m197
-296 c51 -21 1205 -1173 1233 -1231 26 -52 25 -97 -1 -151 -39 -81 -150 -119
-227 -79 -37 19 -1195 1174 -1223 1219 -12 20 -19 50 -19 82 0 125 123 208
237 160z m1054 -127 c26 -14 47 -37 62 -68 44 -87 25 -148 -78 -250 l-75 -75
-122 123 -122 122 69 71 c39 39 87 79 108 89 48 22 106 18 158 -12z m-1744
-98 c16 -6 394 -377 860 -842 743 -742 833 -836 843 -875 24 -84 -11 -167 -86
-203 -50 -25 -97 -25 -149 -1 -27 13 -299 279 -867 847 l-827 829 -7 48 c-8
60 6 112 42 151 48 51 126 70 191 46z m404 -1301 l121 -122 -719 -719 -720
-720 -123 122 -123 122 719 719 c396 396 720 719 722 719 1 0 57 -55 123 -121z
m-2530 -805 c28 -5 170 -142 866 -838 458 -457 840 -845 848 -862 66 -139 -90
-295 -229 -229 -17 8 -406 390 -863 848 -743 743 -832 836 -839 870 -15 85 21
162 91 196 43 21 72 25 126 15z m-195 -703 c41 -25 1190 -1174 1215 -1215 59
-96 -14 -238 -130 -253 -88 -12 -83 -16 -718 620 -409 409 -597 604 -608 629
-32 79 -6 164 67 211 52 33 126 37 174 8z m159 -1061 l119 -120 -69 -71 c-83
-83 -112 -101 -174 -102 -91 -1 -163 63 -175 155 -7 58 18 107 96 185 40 40
75 73 78 73 3 0 59 -54 125 -120z"/>
</g>
</svg>
